<?xml version="1.0" encoding="UTF-8"?>
<svg id="Layer_1" data-name="Layer 1" xmlns="http://www.w3.org/2000/svg" viewBox="0 0 1324 500">
  <defs>
    <style>
      .cls-1 {
        fill: #fff;
      }
    </style>
  </defs>
  <g>
    <path class="cls-1" d="m598.41,216.28h0c-4.43-2.22-9.56-3.35-15.26-3.35-6.46,0-12.29,1.25-17.34,3.72-3.03,1.48-5.69,3.34-7.95,5.55-2.12-2.45-4.69-4.44-7.65-5.93-4.43-2.22-9.56-3.34-15.26-3.34s-11.24,1.26-15.87,3.75c-1.2.64-2.35,1.37-3.44,2.17-.41-1.16-1.09-2.16-2.04-3.01-1.61-1.42-3.73-2.14-6.29-2.14s-4.55.72-6.21,2.13c-1.72,1.47-2.6,3.42-2.6,5.81v56.82c0,1.92.58,3.85,1.89,5.26,1.72,1.86,4,2.81,6.76,2.81,2.53,0,4.62-.73,6.2-2.18,1.62-1.48,2.45-3.37,2.45-5.61v-36.14c0-4.46,1.48-8.01,4.53-10.86,3.07-2.87,6.88-4.27,11.62-4.27s8.18,1.21,10.93,3.59c2.69,2.34,4.05,6.04,4.05,11.01v36.39c0,1.92.59,3.85,1.89,5.26,1.72,1.86,4,2.8,6.76,2.8,2.53,0,4.62-.73,6.2-2.19,1.62-1.48,2.44-3.37,2.44-5.61v-36.1c0-4.48,1.47-8.05,4.48-10.91,3.04-2.88,6.83-4.28,11.6-4.28s8.22,1.22,10.98,3.61c2.7,2.35,4.07,6.07,4.07,11.07v36.36c0,1.92.59,3.85,1.89,5.26,1.72,1.86,4,2.8,6.76,2.8,2.53,0,4.61-.73,6.2-2.18,1.62-1.48,2.45-3.37,2.45-5.61v-36.77c0-6.1-1.26-11.39-3.73-15.72-2.5-4.36-6.03-7.71-10.51-9.95Z"/>
    <path class="cls-1" d="m693.02,218.51h0c-6.06-3.15-12.97-4.74-20.55-4.74s-14.52,1.59-20.62,4.74c-6.12,3.15-11.03,7.52-14.61,12.97-3.6,5.48-5.42,11.73-5.42,18.59s1.67,13.07,4.97,18.49c3.29,5.42,7.84,9.77,13.53,12.92,5.68,3.16,12.18,4.76,19.31,4.76s13.63-1.6,19.31-4.76c2.46-1.37,4.72-2.96,6.75-4.77v1.09c0,1.92.58,3.85,1.88,5.26,1.72,1.86,4,2.81,6.76,2.81s5.04-.94,6.76-2.8c1.31-1.41,1.89-3.34,1.89-5.26v-27.74c0-6.86-1.82-13.11-5.42-18.59-3.58-5.45-8.47-9.81-14.53-12.96Zm-21.9,54.1c-4.58,0-8.78-1-12.47-2.97-3.68-1.96-6.63-4.68-8.75-8.08-2.12-3.38-3.19-7.24-3.19-11.48s1.07-8.23,3.19-11.61c2.13-3.4,5.07-6.12,8.75-8.08,3.69-1.97,7.89-2.97,12.47-2.97s8.89,1,12.53,2.97c3.63,1.96,6.52,4.68,8.61,8.08,2.08,3.39,3.13,7.3,3.13,11.62s-1.05,8.11-3.13,11.49c-2.08,3.4-4.98,6.11-8.61,8.08-3.64,1.97-7.85,2.97-12.53,2.97Z"/>
    <path class="cls-1" d="m793.2,218.81h0c-6.05-3.15-13.02-4.74-20.7-4.74s-14.5,1.59-20.55,4.74c-6.07,3.15-10.93,7.52-14.46,12.97-3.54,5.47-5.39,11.72-5.49,18.58v56.99c0,1.92.59,3.85,1.89,5.26,1.72,1.85,4,2.8,6.76,2.8,2.53,0,4.61-.73,6.2-2.19,1.62-1.48,2.44-3.37,2.44-5.61v-30.61c2.93,2.57,6.3,4.7,10.06,6.34,4.85,2.12,10.23,3.19,15.99,3.19,7.13,0,13.62-1.6,19.31-4.76,5.69-3.16,10.24-7.51,13.53-12.92,3.3-5.43,4.97-11.65,4.97-18.49s-1.82-13.11-5.42-18.59c-3.58-5.45-8.47-9.81-14.53-12.96Zm-20.18,8.59c4.67,0,8.89,1,12.53,2.97,3.63,1.97,6.56,4.69,8.69,8.09,2.12,3.39,3.19,7.29,3.19,11.61s-1.07,8.1-3.19,11.48c-2.13,3.4-5.05,6.12-8.69,8.09-3.64,1.97-7.85,2.97-12.53,2.97s-8.78-1-12.47-2.97c-3.68-1.96-6.59-4.68-8.67-8.07-2.08-3.38-3.13-7.25-3.13-11.49s1.05-8.23,3.13-11.62c2.08-3.39,5-6.11,8.67-8.07,3.69-1.97,7.89-2.97,12.47-2.97Z"/>
    <path class="cls-1" d="m896.71,218.23h0c-5.68-3.16-12.18-4.76-19.31-4.76-5.76,0-11.14,1.07-15.99,3.19-3.77,1.65-7.14,3.77-10.06,6.34v-30.61c0-2.33-.83-4.25-2.46-5.69-1.59-1.4-3.67-2.11-6.18-2.11s-4.47.7-6.1,2.09c-1.69,1.44-2.55,3.36-2.55,5.71v57.27c.1,6.84,1.94,13.09,5.49,18.57,3.53,5.46,8.4,9.82,14.47,12.97,6.05,3.15,12.97,4.74,20.55,4.74s14.64-1.59,20.7-4.74c6.06-3.15,10.95-7.51,14.53-12.96,3.6-5.48,5.42-11.74,5.42-18.59s-1.67-13.06-4.97-18.49c-3.29-5.42-7.84-9.76-13.53-12.92Zm-9.11,51.41c-3.64,1.97-7.85,2.97-12.53,2.97s-8.78-1-12.47-2.97c-3.67-1.96-6.59-4.69-8.67-8.13-2.08-3.43-3.13-7.32-3.13-11.56s1.05-8.21,3.13-11.55c2.08-3.35,5-6.05,8.68-8.02,3.69-1.97,7.89-2.97,12.47-2.97s8.89,1,12.53,2.97c3.64,1.97,6.56,4.67,8.69,8.03,2.12,3.34,3.19,7.22,3.19,11.54s-1.08,8.12-3.2,11.55c-2.13,3.44-5.05,6.18-8.68,8.15Z"/>
    <path class="cls-1" d="m994.44,217.72h0c-6.17-3.12-13.33-4.7-21.25-4.7s-15.23,1.58-21.4,4.7c-6.2,3.13-11.15,7.53-14.71,13.06-3.57,5.55-5.38,12.04-5.38,19.29s1.81,13.61,5.38,19.16c3.56,5.53,8.51,9.93,14.71,13.06,6.17,3.12,13.37,4.7,21.4,4.7s15.23-1.58,21.4-4.7c6.2-3.13,11.13-7.53,14.64-13.07,3.52-5.55,5.3-11.99,5.3-19.15s-1.81-13.73-5.38-19.29c-3.56-5.53-8.51-9.92-14.71-13.06Zm-21.25,54.88c-4.78,0-9.04-.98-12.69-2.91-3.63-1.92-6.52-4.59-8.6-7.95-2.07-3.34-3.12-7.27-3.12-11.68s1.05-8.36,3.13-11.75c2.08-3.39,4.97-6.09,8.6-8.01,3.65-1.93,7.92-2.91,12.69-2.91s9.04.98,12.69,2.91c3.62,1.92,6.49,4.61,8.52,8,2.03,3.39,3.06,7.35,3.06,11.76s-1.03,8.35-3.06,11.69c-2.03,3.35-4.9,6.02-8.52,7.94-3.65,1.93-7.91,2.91-12.69,2.91Z"/>
    <path class="cls-1" d="m1084.03,247.37h0c-4.3-2.01-10.21-3.68-17.55-4.98-5.13-.92-9.05-1.87-11.67-2.82-3.03-1.1-4.27-2.15-4.79-2.84-.74-.99-1.1-2.08-1.1-3.31s.37-2.94,3.57-4.33c2.76-1.2,6.21-1.8,10.25-1.8,3.53,0,6.68.37,9.35,1.1,2.59.71,5.04,2.03,7.31,3.95,1.64,1.35,3.68,2.23,6.05,2.61,2.46.4,4.64.03,6.53-1.12,1.93-1.28,2.97-2.92,3.1-4.88.12-1.91-.65-3.72-2.26-5.35-3.05-3.32-7.19-5.94-12.32-7.81-5.07-1.84-10.95-2.78-17.47-2.78-5.05,0-9.98.73-14.65,2.18-4.74,1.47-8.7,3.74-11.76,6.75-3.17,3.13-4.78,7.11-4.78,11.84,0,5.4,2.41,10,7.16,13.68,4.57,3.55,11.93,6.23,21.92,7.97,7.31,1.16,12.37,2.64,15.04,4.4,2.43,1.6,3.57,3.37,3.5,5.42-.08,2.05-1.33,3.71-3.84,5.09-2.73,1.5-6.82,2.26-12.16,2.26-4.25,0-8.16-.68-11.61-2.02-3.43-1.33-5.93-2.76-7.45-4.26-1.58-1.49-3.49-2.37-5.68-2.62-2.24-.25-4.49.42-6.69,1.96-1.99,1.34-3.15,3.12-3.45,5.28-.31,2.23.45,4.21,2.28,5.94,3.33,2.94,8.02,5.39,13.94,7.27,5.87,1.87,12.34,2.82,19.23,2.82s12.99-.98,17.74-2.93c4.81-1.97,8.53-4.67,11.05-8.02,2.55-3.4,3.84-7.27,3.84-11.49,0-3.7-1.02-7.01-3.02-9.85-1.97-2.8-5.22-5.26-9.63-7.32Z"/>
    <path class="cls-1" d="m1172.48,254.69h0c-1.97-2.8-5.22-5.26-9.63-7.32-4.3-2.01-10.21-3.68-17.55-4.98-5.13-.92-9.05-1.87-11.67-2.82-3.03-1.1-4.27-2.15-4.79-2.84-.74-.99-1.1-2.08-1.1-3.31s.37-2.94,3.57-4.33c2.76-1.2,6.21-1.8,10.25-1.8,3.53,0,6.68.37,9.35,1.1,2.59.71,5.04,2.03,7.31,3.95,1.64,1.35,3.68,2.23,6.05,2.61,2.46.4,4.64.03,6.53-1.12,1.93-1.28,2.97-2.92,3.1-4.88.12-1.91-.65-3.72-2.26-5.35-3.05-3.32-7.19-5.94-12.32-7.81-5.07-1.84-10.95-2.78-17.47-2.78-5.05,0-9.98.73-14.65,2.18-4.74,1.47-8.7,3.74-11.76,6.75-3.17,3.13-4.78,7.11-4.78,11.84,0,5.4,2.41,10,7.16,13.68,4.57,3.55,11.93,6.23,21.92,7.97,7.31,1.16,12.37,2.64,15.04,4.4,2.43,1.6,3.57,3.37,3.5,5.42-.08,2.05-1.33,3.71-3.84,5.09-2.73,1.5-6.82,2.26-12.16,2.26-4.25,0-8.16-.68-11.6-2.02-3.43-1.33-5.93-2.76-7.45-4.26-1.58-1.49-3.49-2.37-5.68-2.62-2.24-.25-4.49.42-6.69,1.96-1.99,1.34-3.15,3.12-3.44,5.28-.31,2.23.45,4.21,2.28,5.94,3.33,2.94,8.02,5.39,13.94,7.27,5.87,1.87,12.34,2.82,19.23,2.82s12.99-.98,17.74-2.93c4.81-1.97,8.53-4.67,11.05-8.02,2.55-3.4,3.84-7.27,3.84-11.49,0-3.7-1.02-7.01-3.02-9.85Z"/>
  </g>
  <g>
    <path class="cls-1" d="m324.32,279.07c0-2.8-.01-5.59.1-8.39.23-5.72.11-11.44-.05-17.16-.5-17.89,5.8-32.87,18.7-44.96,8.54-8.01,17.3-15.79,25.83-23.81,3.21-3.01,5.52-6.72,6.63-11.08,1.09-4.31.9-8.33-2.73-11.48-4.31-3.74-9.45-4.38-14.7-1.27-1.58.94-2.94,2.21-4.08,3.65-7.72,9.73-15.05,19.79-22.85,29.45-12.66,15.68-25.58,31.15-38.39,46.7-4.04,4.91-8.24,9.69-12.09,14.74-6.18,8.09-18.36,8.2-25.08-.19-22.14-27.63-43.1-54.88-65.41-82.37-1.43-1.95-2.72-3.89-6-8-4-5-6.64-6.2-12.25-5.85-5.36.33-8.73,3.4-10.56,8.44-1.58,4.37-2.91,5.18-7.48,5.19-5,.01-9.99.03-14.99-.03-4.1-.05-5.78-1.61-5.89-5.77-.25-9.65,3.46-17.94,9.6-25.08,17.29-20.09,45.04-19.87,62.91.78,8.72,10.08,16.63,20.87,24.87,31.37,12.11,15.42,24.2,30.86,36.29,46.3.39.49.74,1.01,1.19,1.64.71-.62,1.16-.91,1.48-1.31,17.74-22.3,35.43-44.65,53.24-66.9,4.41-5.51,8.69-11.28,13.9-15.97,21.35-19.19,54.23-11.78,64.6,15.03,7.65,19.78,5.08,38.68-10.31,54.42-6.78,6.93-14.26,13.18-21.49,19.66-5.98,5.36-11.08,11.33-13.07,19.31-.8,3.23-1.37,6.61-1.38,9.93-.12,24.83-.08,49.65-.07,74.48,0,1.02.07,2.04.3,3.04,1.2,5.15,4.97,8.56,9.36,8.57,4.85,0,9.48-3.92,10.5-9.07.35-1.77.43-3.61.44-5.42.06-21.16.26-42.32.03-63.48-.13-12.11,3.65-22.21,13.02-30.08,2.5-2.1,4.85-4.38,7.37-6.47,1.87-1.55,3.95-2.72,6.48-1.45,2.45,1.23,2.56,3.55,2.56,5.86.03,16.53.06,33.06.06,49.59,0,16.08,0,32.15-.09,48.23-.04,9.18-2.1,17.83-7.43,25.46-9.72,13.93-23.14,19.96-39.83,17.09-16.16-2.78-26.03-13.21-30.82-28.51-1.37-4.36-2.17-8.98-2.44-13.62l.02-51.19Z"/>
    <path class="cls-1" d="m210.78,345.91c-6,15-20.55,27.09-37.24,27.16-19.86.09-36.75-14.35-39.64-34.24-.81-5.54-.95-11.21-.96-16.83-.05-41.32,0-82.63.03-123.95,0-7.08,1.87-6.76,11.72-6.8,4.04-.01,8.02-.06,11.66-.06,11.44,0,19.94,2.43,28.38,8.53,12.69,9.18,22.89,20.33,26.54,35.99,1.47,6.29,1.69,12.93,1.96,19.43.32,7.69.07,15.4.07,23.1l-.02,51.1s.68,7.99-2.49,16.54Zm-48.63-66h.08c0,16.71-.04,33.42.02,50.12.02,6.26,3.9,11.07,9.01,11.56,5.39.52,10.3-3.71,11.49-10.03.1-.5.15-1.34.15-1.85.01-25.21.18-50.43-.09-75.64-.09-8.74-2.69-17.04-9.47-23.24-1.91-1.75-4.19-3.06-6.64-3.92-3.77-1.33-4.55-.52-4.55,3.14,0,16.62,0,33.23,0,49.85Z"/>
    <path class="cls-1" d="m293.42,327.59c-.09,15.29-10.9,26.52-25.49,26.48-13.79-.04-25-11.88-24.92-26.32.08-14.77,10.88-25.62,25.39-25.52,14.24.1,25.1,11.12,25.02,25.37Z"/>
  </g>
</svg>