<?xml version="1.0" encoding="UTF-8"?>
<svg id="Layer_1" data-name="Layer 1" xmlns="http://www.w3.org/2000/svg" viewBox="0 0 500 500">
  <defs>
    <style>
      .cls-1 {
        fill: #009b68;
      }

      .cls-2 {
        fill: #fcc330;
      }

      .cls-3 {
        fill: #007368;
      }
    </style>
  </defs>
  <path class="cls-3" d="m305.32,270.6c0-2.8-.01-5.59.1-8.39.23-5.72.11-11.44-.05-17.16-.5-17.89,5.8-32.87,18.7-44.96,8.54-8.01,17.3-15.79,25.83-23.81,3.21-3.01,5.52-6.72,6.63-11.08,1.09-4.31.9-8.33-2.73-11.48-4.31-3.74-9.45-4.38-14.7-1.27-1.58.94-2.94,2.21-4.08,3.65-7.72,9.73-15.05,19.79-22.85,29.45-12.66,15.68-25.58,31.15-38.39,46.7-4.04,4.91-8.24,9.69-12.09,14.74-6.18,8.09-18.36,8.2-25.08-.19-22.14-27.63-43.1-54.88-65.41-82.37-1.43-1.95-2.72-3.89-6-8-4-5-6.64-6.2-12.25-5.85-5.36.33-8.73,3.4-10.56,8.44-1.58,4.37-2.91,5.18-7.48,5.19-5,.01-9.99.03-14.99-.03-4.1-.05-5.78-1.61-5.89-5.77-.25-9.65,3.46-17.94,9.6-25.08,17.29-20.09,45.04-19.87,62.91.78,8.72,10.08,16.63,20.87,24.87,31.37,12.11,15.42,24.2,30.86,36.29,46.3.39.49.74,1.01,1.19,1.64.71-.62,1.16-.91,1.48-1.31,17.74-22.3,35.43-44.65,53.24-66.9,4.41-5.51,8.69-11.28,13.9-15.97,21.35-19.19,54.23-11.78,64.6,15.03,7.65,19.78,5.08,38.68-10.31,54.42-6.78,6.93-14.26,13.18-21.49,19.66-5.98,5.36-11.08,11.33-13.07,19.31-.8,3.23-1.37,6.61-1.38,9.93-.12,24.83-.08,49.65-.07,74.48,0,1.02.07,2.04.3,3.04,1.2,5.15,4.97,8.56,9.36,8.57,4.85,0,9.48-3.92,10.5-9.07.35-1.77.43-3.61.44-5.42.06-21.16.26-42.32.03-63.48-.13-12.11,3.65-22.21,13.02-30.08,2.5-2.1,4.85-4.38,7.37-6.47,1.87-1.55,3.95-2.72,6.48-1.45,2.45,1.23,2.56,3.55,2.56,5.86.03,16.53.06,33.06.06,49.59,0,16.08,0,32.15-.09,48.23-.04,9.18-2.1,17.83-7.43,25.46-9.72,13.93-23.14,19.96-39.83,17.09-16.16-2.78-26.03-13.21-30.82-28.51-1.37-4.36-2.17-8.98-2.44-13.62l.02-51.19Z"/>
  <path class="cls-1" d="m191.78,337.43c-6,15-20.55,27.09-37.24,27.16-19.86.09-36.75-14.35-39.64-34.24-.81-5.54-.95-11.21-.96-16.83-.05-41.32,0-82.63.03-123.95,0-7.08,1.87-6.76,11.72-6.8,4.04-.01,8.02-.06,11.66-.06,11.44,0,19.94,2.43,28.38,8.53,12.69,9.18,22.89,20.33,26.54,35.99,1.47,6.29,1.69,12.93,1.96,19.43.32,7.69.07,15.4.07,23.1l-.02,51.1s.68,7.99-2.49,16.54Zm-48.63-66h.08c0,16.71-.04,33.42.02,50.12.02,6.26,3.9,11.07,9.01,11.56,5.39.52,10.3-3.71,11.49-10.03.1-.5.15-1.34.15-1.85.01-25.21.18-50.43-.09-75.64-.09-8.74-2.69-17.04-9.47-23.24-1.91-1.75-4.19-3.06-6.64-3.92-3.77-1.33-4.55-.52-4.55,3.14,0,16.62,0,33.23,0,49.85Z"/>
  <path class="cls-2" d="m274.42,319.12c-.09,15.29-10.9,26.52-25.49,26.48-13.79-.04-25-11.88-24.92-26.32.08-14.77,10.88-25.62,25.39-25.52,14.24.1,25.1,11.12,25.02,25.37Z"/>
</svg>