<svg width="136" height="136" viewBox="0 0 136 136" fill="none" xmlns="http://www.w3.org/2000/svg">
<g clip-path="url(#clip0_124_1739)">
<rect width="136" height="136" rx="11" fill="#117067"/>
<rect x="40" y="58" width="141" height="134" rx="67" fill="#FAB210"/>
<path d="M109.286 72C109.286 77.7408 108.122 81.3912 106.484 83.8047C104.879 86.1715 102.483 87.8436 99.0251 89.0058C95.4838 90.196 91.0433 90.776 85.6868 91.0244C81.4962 91.2188 76.9961 91.2045 72.1425 91.1889C70.7894 91.1846 69.4089 91.1802 68 91.1802C66.5911 91.1802 65.2106 91.1846 63.8575 91.1889C59.0039 91.2045 54.5038 91.2188 50.3132 91.0244C44.9567 90.776 40.5162 90.196 36.9749 89.0058C33.5173 87.8436 31.1214 86.1715 29.5157 83.8047C27.8782 81.3912 26.7138 77.7408 26.7138 72C26.7138 49.1983 45.1983 30.7138 68 30.7138C90.8018 30.7138 109.286 49.1983 109.286 72Z" fill="white" stroke="white" stroke-width="9.42756"/>
<path d="M52.4675 80.9669C50.8055 82.6786 50.5212 85.3015 51.7777 87.3296L63.4163 106.115C65.4501 109.397 70.2256 109.397 72.2594 106.115L83.898 87.3296C85.1546 85.3015 84.8702 82.6786 83.2082 80.9668L71.5697 68.9799C69.5267 66.8758 66.1491 66.8758 64.1061 68.9799L52.4675 80.9669Z" fill="#FAB210" stroke="white" stroke-width="3.90106"/>
<circle cx="50.2828" cy="63.7105" r="4.22615" fill="black"/>
<circle cx="51.9079" cy="62.7348" r="1.62544" fill="white"/>
<circle cx="85.3922" cy="63.7105" r="4.22615" fill="black"/>
<path d="M95.1454 78.9896C98.1976 78.9896 100.672 77.2431 100.672 75.0886C100.672 72.9341 98.1976 71.1875 95.1454 71.1875C92.0932 71.1875 89.6189 72.9341 89.6189 75.0886C89.6189 77.2431 92.0932 78.9896 95.1454 78.9896Z" fill="#458AC9"/>
<path d="M40.8556 79.9647C43.9078 79.9647 46.3821 78.2182 46.3821 76.0637C46.3821 73.9092 43.9078 72.1626 40.8556 72.1626C37.8034 72.1626 35.3291 73.9092 35.3291 76.0637C35.3291 78.2182 37.8034 79.9647 40.8556 79.9647Z" fill="#F16A21"/>
<circle cx="87.017" cy="62.7348" r="1.62544" fill="white"/>
</g>
<defs>
<clipPath id="clip0_124_1739">
<rect width="136" height="136" rx="32" fill="white"/>
</clipPath>
</defs>
</svg>
