<?xml version="1.0" encoding="utf-8"?>
<svg viewBox="0 0 440.5 73.8" xmlns="http://www.w3.org/2000/svg">
  <defs>
    <style type="text/css">
	.st0{fill:#FFFFFF;}
	.st1{fill:#FAB210;}
	.st2{fill:#458AC9;}
	.st3{fill:#F16A21;}
</style>
  </defs>
  <g transform="matrix(0.9999999999999999, 0, 0, 0.9999999999999999, -331.4999694824219, -84.20000457763672)">
    <path class="st0" d="M351.8,158c-7.1,0-11.6-4.2-13.5-12.7l-6.6-29.8c-0.1-0.8-0.2-1.3-0.2-1.5c0-1.6,0.5-2.8,1.6-3.6&#10;&#9;&#9;c1.2-0.9,2.8-1.3,4.8-1.3s3.7,0.4,5,1.3c1.3,0.9,2,2.1,2.3,3.7l5.3,31.9c0.2,1.3,0.6,2,1.3,2c0.8,0,1.2-0.6,1.4-1.9l3.6-26.5&#10;&#9;&#9;c0.5-3.4,1.8-6,3.7-7.8c2-1.9,4.5-2.8,7.7-2.8c3.1,0,5.7,0.9,7.7,2.8c2,1.8,3.2,4.4,3.7,7.8l3.6,26.5c0.2,1.3,0.7,1.9,1.4,1.9&#10;&#9;&#9;c0.7,0,1.2-0.7,1.3-2l5.3-31.9c0.3-1.6,1-2.8,2.3-3.7c1.3-0.9,2.9-1.3,5-1.3c2,0,3.6,0.4,4.7,1.3c1.2,0.8,1.7,2,1.7,3.6&#10;&#9;&#9;c0,0.3-0.1,0.8-0.2,1.5l-6.6,29.8c-1.9,8.4-6.4,12.7-13.5,12.7c-3.5,0-6.2-1.1-8.2-3.3c-1.9-2.2-3.2-5.6-3.8-10.2l-3.2-23.6&#10;&#9;&#9;c-0.1-0.7-0.2-1.2-0.5-1.4c-0.2-0.3-0.5-0.5-0.9-0.5s-0.7,0.2-1,0.5c-0.2,0.3-0.3,0.7-0.4,1.4l-3.2,23.6c-0.6,4.6-1.9,8-3.8,10.2&#10;&#9;&#9;C358,156.9,355.3,158,351.8,158z M417.9,158c-2,0-3.5-0.5-4.6-1.5s-1.6-2.4-1.6-4.2V89.9c0-1.8,0.5-3.2,1.6-4.2&#10;&#9;&#9;c1.1-1,2.6-1.5,4.6-1.5c1.9,0,3.5,0.5,4.6,1.5c1.2,1,1.7,2.4,1.7,4.2v27.6c2.4-2.9,5-5.1,8-6.4c2.9-1.4,6.4-2.1,10.3-2.1&#10;&#9;&#9;c6.1,0,11,2,14.5,5.9c3.6,3.8,5.4,9.1,5.4,15.7v21.6c0,1.8-0.6,3.2-1.7,4.2s-2.7,1.5-4.6,1.5c-2,0-3.5-0.5-4.6-1.5s-1.6-2.4-1.6-4.2&#10;&#9;&#9;v-21.6c0-3.6-0.9-6.5-2.7-8.5c-1.8-2-4.3-3.1-7.5-3.1c-4.9,0-8.6,1.4-11.3,4.3c-2.7,2.8-4,6.8-4,11.9v17c0,1.8-0.6,3.2-1.7,4.2&#10;&#9;&#9;S419.8,158,417.9,158z M496.9,158c-5.5,0-10.3-1-14.4-3c-4.1-2-7.3-4.8-9.5-8.4c-2.2-3.6-3.3-7.9-3.3-12.8c0-7.9,2.3-14,6.8-18.3&#10;&#9;&#9;c4.6-4.4,11.1-6.5,19.4-6.5c5.1,0,9.6,0.8,13.5,2.4c4,1.6,7,3.8,9.2,6.7c2.2,2.8,3.4,6,3.4,9.7c0,3.1-1,5.4-3,7.1&#10;&#9;&#9;c-1.9,1.7-4.7,2.5-8.3,2.5h-28.9c0,3.6,1.2,6.3,3.7,8.2c2.6,1.8,6.3,2.7,11.2,2.7c5.2,0,9.6-1.2,13.2-3.5c2-1.3,3.6-1.9,4.8-1.9&#10;&#9;&#9;c1.1,0,2.1,0.5,3.2,1.5c1.1,1.1,1.6,2.3,1.6,3.6c0,1.5-0.6,2.8-1.9,3.6c-2.7,2-5.8,3.6-9.4,4.7S501,158,496.9,158z M507,128.6&#10;&#9;&#9;c1.1,0,1.9-0.2,2.3-0.6c0.4-0.4,0.7-1.2,0.7-2.1c0-2.2-1.3-4-3.8-5.3c-2.5-1.3-5.9-1.9-10.2-1.9s-7.7,0.9-10.2,2.7&#10;&#9;&#9;c-2.4,1.8-3.6,4.2-3.6,7.2H507z M536.2,158c-2,0-3.5-0.5-4.6-1.5c-1.1-1-1.6-2.4-1.6-4.2v-37.4c0-1.9,0.5-3.3,1.5-4.2&#10;&#9;&#9;c1.1-1,2.6-1.5,4.5-1.5s3.4,0.5,4.5,1.5c1.1,1,1.6,2.4,1.6,4.2v3.2c2-2.6,4.3-4.5,6.9-5.9c2.7-1.4,5.6-2.1,8.6-2.1h2.1&#10;&#9;&#9;c2,0,3.6,0.4,4.7,1.3c1.2,0.8,1.7,2,1.7,3.6c0,1.6-0.6,2.8-1.7,3.7c-1.1,0.8-2.7,1.2-4.7,1.2h-3.3c-4.3,0-7.7,1.4-10.3,4.1&#10;&#9;&#9;c-2.5,2.7-3.7,6.4-3.7,11.1v17c0,1.8-0.6,3.2-1.7,4.2C539.6,157.4,538.1,158,536.2,158z M595.6,158c-5.6,0-10.5-1-14.9-3&#10;&#9;&#9;c-4.3-2-7.6-4.9-10.1-8.6c-2.4-3.7-3.6-8-3.6-12.9s1.2-9.2,3.6-12.9c2.4-3.7,5.8-6.6,10.1-8.5c4.4-2,9.3-3.1,14.9-3.1&#10;&#9;&#9;c5.6,0,10.5,1,14.8,3.1c4.4,2,7.7,4.8,10.2,8.5c2.4,3.7,3.6,8,3.6,12.9s-1.2,9.2-3.6,12.9c-2.4,3.7-5.8,6.6-10.2,8.6&#10;&#9;&#9;C606.1,157,601.1,158,595.6,158z M595.6,148c4.9,0,8.8-1.3,11.6-3.8c2.9-2.6,4.3-6.1,4.3-10.7c0-4.5-1.4-8.1-4.3-10.7&#10;&#9;&#9;c-2.8-2.6-6.7-3.8-11.6-3.8c-4.9,0-8.8,1.3-11.7,3.8c-2.8,2.6-4.2,6.1-4.2,10.7c0,4.5,1.4,8.1,4.2,10.7&#10;&#9;&#9;C586.7,146.7,590.6,148,595.6,148z M655.4,158c-10.3,0-17.9-3-22.8-8.9c-1-1.3-1.5-2.6-1.5-3.6c0-1.5,0.8-2.9,2.4-4&#10;&#9;&#9;c1.1-0.7,2.1-1.1,3.2-1.1c1.4,0,2.7,0.6,3.9,1.8c2.2,2.2,4.3,3.7,6.3,4.7c2.1,0.9,4.7,1.3,7.8,1.3c2.6,0,4.8-0.4,6.6-1.1&#10;&#9;&#9;s2.7-1.6,2.7-2.6c0-1.3-0.7-2.4-2.2-3.3c-1.5-0.9-4.4-2-8.9-3.5c-7-2.2-12-4.4-15-6.8c-2.9-2.4-4.4-5.4-4.4-9c0-4,1.7-7.2,5.2-9.5&#10;&#9;&#9;s8.2-3.5,14.3-3.5c4.7,0,8.9,0.7,12.7,2.1s6.5,3.3,8.3,5.7c0.8,1.1,1.2,2.2,1.2,3.3c0,1.5-0.8,2.8-2.3,3.7c-1.1,0.7-2.2,1.1-3.4,1.1&#10;&#9;&#9;c-1.9,0-3.6-0.8-5.1-2.3c-1.3-1.2-2.9-2.1-5-2.8c-2-0.6-4.2-1-6.5-1c-4.5,0-6.7,1.1-6.7,3.2c0,0.8,0.4,1.6,1.1,2.2&#10;&#9;&#9;c0.7,0.6,2,1.3,3.7,2c1.9,0.7,4.7,1.7,8.6,2.9c6.3,1.9,10.7,4,13.2,6.3c2.6,2.3,3.8,5.3,3.8,9.1c0,4-1.9,7.3-5.6,9.8&#10;&#9;&#9;C667.3,156.7,662.1,158,655.4,158z M723.6,144.6c1,0.8,1.5,1.9,1.5,3.1s-0.4,2.5-1.3,3.7c-1.4,2-3.4,3.6-6,4.8&#10;&#9;&#9;c-2.6,1.2-5.4,1.7-8.6,1.7c-5.1,0-9.2-1.4-12.1-4.1c-2.9-2.8-4.3-6.7-4.3-11.5v-22.5h-3.9c-1.9,0-3.5-0.4-4.6-1.3&#10;&#9;&#9;c-1.2-0.9-1.7-2.1-1.7-3.6c0-1.5,0.5-2.8,1.6-3.6c1.2-0.9,2.7-1.3,4.7-1.3h3.9V95.5c0-1.8,0.6-3.2,1.7-4.2c1.2-1,2.7-1.5,4.6-1.5&#10;&#9;&#9;c2,0,3.5,0.5,4.6,1.5c1.1,1,1.6,2.4,1.6,4.2V110h9.2c2,0,3.5,0.4,4.6,1.3c1.2,0.9,1.7,2.1,1.7,3.6c0,1.5-0.6,2.7-1.7,3.6&#10;&#9;&#9;c-1.1,0.9-2.6,1.3-4.6,1.3h-9.2v23.5c0,1.4,0.4,2.5,1.2,3.4c0.9,0.8,2.1,1.2,3.6,1.2c1.2,0,2.1-0.2,3-0.5c0.9-0.4,1.8-1,2.7-1.8&#10;&#9;&#9;c1.7-1.6,3.2-2.4,4.6-2.4C721.5,143.3,722.5,143.7,723.6,144.6z"/>
    <path class="st0" d="M743,112L743,112c3.3,0,6,2.7,6,6v33c0,3.3-2.7,6-6,6l0,0c-3.3,0-6-2.7-6-6v-33C737,114.7,739.7,112,743,112z"/>
    <path class="st1" d="M764,112L764,112c4.4,0,8,3.6,8,8l0,0c0,4.4-3.6,8-8,8l0,0c-4.4,0-8-3.6-8-8l0,0C756,115.6,759.6,112,764,112z"/>
  </g>
</svg>